<svg width="126" height="14" viewBox="0 0 126 14" fill="none" xmlns="http://www.w3.org/2000/svg">
<path d="M27.4415 10.5234H21.8461V7.67219H25.4202C25.5139 7.67219 25.5808 7.60526 25.5808 7.51156V5.82491C25.5808 5.73121 25.5139 5.66428 25.4202 5.66428H21.8461V3.09414H27.4415C27.5352 3.09414 27.6021 3.02721 27.6021 2.93351V1.26024C27.6021 1.16654 27.5352 1.09961 27.4415 1.09961H19.7043C19.6106 1.09961 19.5437 1.16654 19.5437 1.26024V12.3707C19.5437 12.4644 19.6106 12.5314 19.7043 12.5314H27.4415C27.5352 12.5314 27.6021 12.4644 27.6021 12.3707V10.6841C27.6021 10.5904 27.5352 10.5234 27.4415 10.5234Z" fill="white"/>
<path d="M107.437 1.11328C107.317 1.11328 107.236 1.23376 107.29 1.34084L108.267 3.29522C108.294 3.36215 108.361 3.40231 108.441 3.40231H111.051V12.371C111.051 12.4647 111.118 12.5316 111.212 12.5316H113.193C113.287 12.5316 113.354 12.4647 113.354 12.371V3.40231H115.964C116.031 3.40231 116.098 3.36215 116.138 3.29522L117.115 1.34084C117.169 1.23376 117.088 1.11328 116.968 1.11328H107.437Z" fill="white"/>
<path d="M31.0559 6.58694L34.389 9.82638C34.4559 9.89331 34.5497 9.89331 34.6166 9.82638L37.9631 6.58694V12.3564C37.9631 12.4501 38.03 12.517 38.1237 12.517H40.1049C40.1986 12.517 40.2655 12.4501 40.2655 12.3564V1.25926C40.2655 1.11202 40.0915 1.04508 39.9978 1.15217L34.63 6.47985C34.563 6.54678 34.4693 6.54678 34.4024 6.47985L29.0346 1.15217C28.9275 1.05847 28.7668 1.1254 28.7668 1.25926V12.3564C28.7668 12.4501 28.8338 12.517 28.9275 12.517H30.9086C31.0023 12.517 31.0693 12.4501 31.0693 12.3564V6.58694H31.0559Z" fill="white"/>
<path d="M70.3707 6.0248L69.0455 5.44919C68.6038 5.2484 68.2691 5.061 68.0415 4.90036C67.8006 4.72634 67.6935 4.47201 67.6935 4.13735C67.6935 3.74916 67.8407 3.48143 68.1218 3.29403C68.403 3.12001 68.751 3.02631 69.1392 3.02631C69.6211 3.02631 70.0361 3.14678 70.3975 3.37435C70.7188 3.57514 70.9999 3.85625 71.2676 4.21767C71.3211 4.2846 71.4282 4.31137 71.4952 4.25783L72.8739 3.21371C72.9409 3.16017 72.9542 3.07985 72.9141 3.01292C72.5794 2.43732 72.0975 1.9688 71.4952 1.58061C70.8392 1.16564 70.0494 0.964844 69.1258 0.964844C68.5904 0.964844 68.0817 1.04516 67.6132 1.19241C67.1447 1.33966 66.7297 1.55383 66.395 1.84833C66.047 2.12944 65.7793 2.47748 65.5785 2.86567C65.3777 3.26726 65.284 3.709 65.284 4.20428C65.284 4.60587 65.3509 4.96729 65.4982 5.30195C65.6454 5.62321 65.8328 5.91771 66.0872 6.18543C66.3281 6.45315 66.636 6.6941 66.984 6.90828C67.3321 7.12246 67.7069 7.32325 68.1218 7.51066L69.3534 8.05949C69.8219 8.27367 70.1833 8.46107 70.451 8.64848C70.7054 8.83588 70.8392 9.11699 70.8392 9.47842C70.8392 9.88 70.692 10.2013 70.4109 10.4154C70.1164 10.6296 69.7148 10.7501 69.2061 10.7501C68.8581 10.7501 68.5368 10.7099 68.2557 10.6162C67.9746 10.5225 67.7203 10.4021 67.4927 10.2414C67.2651 10.0808 67.051 9.90677 66.8635 9.70598C66.7163 9.54535 66.5691 9.38471 66.4486 9.21069C66.395 9.14376 66.3013 9.13038 66.221 9.18392L64.8289 10.2147C64.7619 10.2682 64.7485 10.3485 64.7887 10.4288C65.2171 11.1383 65.7927 11.7005 66.5289 12.1423C67.3053 12.6108 68.2022 12.8383 69.2195 12.8383C69.7951 12.8383 70.3306 12.758 70.8258 12.5974C71.3211 12.4367 71.7495 12.2092 72.1109 11.9147C72.4723 11.6202 72.7668 11.2588 72.981 10.8304C73.1952 10.4021 73.3023 9.92016 73.3023 9.38471C73.3023 8.56816 73.0479 7.89885 72.5526 7.40357C71.9904 6.88151 71.281 6.42638 70.3707 6.0248Z" fill="white"/>
<path d="M122.122 6.0248L120.796 5.44919C120.355 5.2484 120.02 5.061 119.793 4.90036C119.552 4.72634 119.444 4.47201 119.444 4.13735C119.444 3.74916 119.592 3.48143 119.873 3.29403C120.154 3.12001 120.502 3.02631 120.89 3.02631C121.372 3.02631 121.787 3.14678 122.148 3.37435C122.47 3.57514 122.751 3.85625 123.019 4.21767C123.072 4.2846 123.179 4.31137 123.246 4.25783L124.625 3.21371C124.692 3.16017 124.705 3.07985 124.665 3.01292C124.33 2.43732 123.848 1.9688 123.246 1.58061C122.59 1.16564 121.8 0.964844 120.877 0.964844C120.341 0.964844 119.833 1.04516 119.364 1.19241C118.896 1.33966 118.481 1.55383 118.146 1.84833C117.798 2.12944 117.53 2.47748 117.329 2.86567C117.129 3.26726 117.035 3.709 117.035 4.20428C117.035 4.60587 117.102 4.96729 117.249 5.30195C117.396 5.62321 117.584 5.91771 117.838 6.18543C118.079 6.45315 118.387 6.6941 118.735 6.90828C119.083 7.12246 119.458 7.32325 119.873 7.51066L121.104 8.05949C121.573 8.27367 121.934 8.46107 122.202 8.64848C122.456 8.83588 122.59 9.11699 122.59 9.47842C122.59 9.88 122.443 10.2013 122.162 10.4154C121.867 10.6296 121.466 10.7501 120.957 10.7501C120.609 10.7501 120.288 10.7099 120.007 10.6162C119.726 10.5225 119.471 10.4021 119.244 10.2414C119.016 10.0808 118.802 9.90677 118.615 9.70598C118.467 9.54535 118.32 9.38471 118.2 9.21069C118.146 9.14376 118.052 9.13038 117.972 9.18392L116.58 10.2147C116.513 10.2682 116.5 10.3485 116.54 10.4288C116.968 11.1383 117.544 11.7005 118.28 12.1423C119.056 12.6108 119.953 12.8383 120.97 12.8383C121.546 12.8383 122.082 12.758 122.577 12.5974C123.072 12.4367 123.5 12.2092 123.862 11.9147C124.223 11.6202 124.518 11.2588 124.732 10.8304C124.946 10.4021 125.053 9.92016 125.053 9.38471C125.053 8.56816 124.799 7.89885 124.304 7.40357C123.755 6.88151 123.045 6.42638 122.122 6.0248Z" fill="white"/>
<path d="M5.18043 1.09961H0.160634C0.0669307 1.09961 0 1.16654 0 1.26024V12.3707C0 12.4644 0.0669307 12.5314 0.160634 12.5314H2.14178C2.23548 12.5314 2.30241 12.4644 2.30241 12.3707V3.09414H4.85916C5.80958 3.09414 6.62613 3.87054 6.61274 4.82095C6.61274 5.28946 6.41195 5.71782 6.10407 6.0257C5.79619 6.33358 5.35445 6.52099 4.88593 6.52099H2.87802C2.75754 6.52099 2.67722 6.65485 2.74415 6.76194L3.78827 8.44859C3.81504 8.48875 3.86859 8.52891 3.92213 8.52891H5.19381C5.5954 8.52891 5.97021 8.46198 6.33163 8.35489C7.83088 7.87299 8.91516 6.48083 8.91516 4.82095C8.91516 3.79022 8.50019 2.86658 7.81749 2.19727C7.1348 1.51458 6.21116 1.09961 5.18043 1.09961Z" fill="white"/>
<path d="M18.6871 4.79418C18.6737 2.7461 16.9737 1.09961 14.9122 1.09961H9.93261C9.8389 1.09961 9.77197 1.16654 9.77197 1.26024V12.3573C9.77197 12.451 9.8389 12.518 9.93261 12.518H11.9138C12.0075 12.518 12.0744 12.451 12.0744 12.3573V3.09414H14.6311C15.5815 3.09414 16.3713 3.84376 16.3847 4.78079C16.3981 5.73121 15.6217 6.52099 14.6579 6.52099H12.65C12.5295 6.52099 12.4492 6.65485 12.5161 6.76194L16.0501 12.4377C16.0768 12.4778 16.1304 12.518 16.1839 12.518H18.3926C18.5131 12.518 18.5934 12.3841 18.5265 12.277L16.0768 8.3415C17.6029 7.87299 18.7005 6.46744 18.6871 4.79418Z" fill="white"/>
<path d="M62.9684 4.79418C62.955 2.7461 61.255 1.09961 59.1935 1.09961H54.2139C54.1202 1.09961 54.0532 1.16654 54.0532 1.26024V12.3573C54.0532 12.451 54.1202 12.518 54.2139 12.518H56.195C56.2887 12.518 56.3556 12.451 56.3556 12.3573V3.09414H58.9124C59.8628 3.09414 60.6526 3.84376 60.666 4.78079C60.6794 5.73121 59.903 6.52099 58.9392 6.52099H56.9312C56.8108 6.52099 56.7304 6.65485 56.7974 6.76194L60.3313 12.4377C60.3581 12.4778 60.4116 12.518 60.4652 12.518H62.6739C62.7944 12.518 62.8747 12.3841 62.8077 12.277L60.3581 8.3415C61.8841 7.87299 62.9684 6.46744 62.9684 4.79418Z" fill="white"/>
<path d="M52.7413 10.5234H47.1459V7.67219H50.72C50.8137 7.67219 50.8806 7.60526 50.8806 7.51156V5.82491C50.8806 5.73121 50.8137 5.66428 50.72 5.66428H47.1459V3.09414H52.7413C52.835 3.09414 52.9019 3.02721 52.9019 2.93351V1.26024C52.9019 1.16654 52.835 1.09961 52.7413 1.09961H45.0041C44.9104 1.09961 44.8435 1.16654 44.8435 1.26024V12.3707C44.8435 12.4644 44.9104 12.5314 45.0041 12.5314H52.7413C52.835 12.5314 52.9019 12.4644 52.9019 12.3707V10.6841C52.9019 10.5904 52.835 10.5234 52.7413 10.5234Z" fill="white"/>
<path d="M43.545 1.09961H41.5638C41.4701 1.09961 41.4032 1.16654 41.4032 1.26024V12.3707C41.4032 12.4644 41.4701 12.5314 41.5638 12.5314H43.545C43.6387 12.5314 43.7056 12.4644 43.7056 12.3707V1.26024C43.7056 1.16654 43.6253 1.09961 43.545 1.09961Z" fill="white"/>
<path d="M79.5673 1.09961H74.5475C74.4538 1.09961 74.3868 1.16654 74.3868 1.26024V12.3707C74.3868 12.4644 74.4538 12.5314 74.5475 12.5314H76.5286C76.6223 12.5314 76.6893 12.4644 76.6893 12.3707V3.10753H79.246C80.1964 3.10753 81.013 3.88392 80.9996 4.83434C80.9996 5.30285 80.7988 5.73121 80.4909 6.03909C80.183 6.34697 79.7413 6.53437 79.2728 6.53437H77.2649C77.1444 6.53437 77.0641 6.66823 77.131 6.77532L78.1751 8.46198C78.2019 8.50213 78.2554 8.54229 78.309 8.54229H79.5673C79.9689 8.54229 80.3437 8.47536 80.7051 8.36827C82.2177 7.88637 83.302 6.49422 83.302 4.83434C83.302 3.80361 82.887 2.87996 82.2043 2.21066C81.535 1.51458 80.598 1.09961 79.5673 1.09961Z" fill="white"/>
<path d="M107.504 4.80785C107.491 2.75977 105.791 1.11328 103.729 1.11328H98.7495C98.6558 1.11328 98.5889 1.18021 98.5889 1.27391V12.3844C98.5889 12.4781 98.6558 12.545 98.7495 12.545H100.731C100.824 12.545 100.891 12.4781 100.891 12.3844V3.10781H103.461C104.412 3.10781 105.202 3.85744 105.215 4.79446C105.228 5.74488 104.452 6.53466 103.488 6.53466H101.48C101.36 6.53466 101.279 6.66852 101.346 6.77561L104.88 12.4513C104.907 12.4915 104.961 12.5316 105.014 12.5316H107.223C107.343 12.5316 107.424 12.3978 107.357 12.2907L104.907 8.35517C106.42 7.87327 107.517 6.46773 107.504 4.80785Z" fill="white"/>
<path d="M83.8774 6.815C83.8774 10.3489 86.568 13.2537 90.0217 13.6285C90.1154 13.6419 90.1957 13.5616 90.1957 13.4679V11.4868C90.1957 11.4064 90.1421 11.3395 90.0618 11.3261C87.8531 10.9915 86.1665 9.09064 86.1665 6.815C86.1665 4.53936 87.8531 2.63853 90.0618 2.30388C90.1421 2.29049 90.1957 2.22356 90.1957 2.14324V0.162098C90.1957 0.0683956 90.1154 -0.0119212 90.0217 0.00146493C86.5814 0.376276 83.8774 3.28106 83.8774 6.815Z" fill="white"/>
<path d="M91.3605 0.162098V2.14324C91.3605 2.22356 91.414 2.29049 91.4943 2.30388C93.703 2.63853 95.3897 4.53936 95.3897 6.815C95.3897 9.09064 93.703 10.9915 91.4943 11.3261C91.414 11.3395 91.3605 11.4064 91.3605 11.4868V13.4679C91.3605 13.5616 91.4408 13.6419 91.5345 13.6285C94.9881 13.2537 97.6787 10.3489 97.6787 6.815C97.6787 3.28106 94.9881 0.376276 91.5345 0.00146493C91.4408 -0.0119212 91.3605 0.0683956 91.3605 0.162098Z" fill="white"/>
</svg>
